<svg width="56" height="55" viewBox="0 0 56 55" fill="none" xmlns="http://www.w3.org/2000/svg">
<path d="M37.0916 14.1948L40.617 20.0272C40.617 20.0272 40.6458 20.0776 40.7035 20.0632C40.7612 20.0488 40.7612 20.0199 40.7612 19.9839V13.1422C40.7612 10.0278 39.5428 7.1513 37.3368 5.05338C34.9433 2.77524 31.5981 1.57129 27.6618 1.57129C23.7256 1.57129 20.3876 2.77524 17.9869 5.05338C15.7809 7.1513 14.5625 10.0206 14.5625 13.1422V19.9839C14.5625 19.9839 14.5625 20.0416 14.6202 20.0632C14.6779 20.0776 14.6923 20.056 14.7067 20.0272L18.232 14.1948C18.5997 13.5892 18.7872 12.8971 18.7872 12.1906V9.35015C18.7872 8.91038 19.1404 8.55712 19.5802 8.55712C20.02 8.55712 20.3732 8.91038 20.3732 9.35015V12.1906C20.3732 13.1855 20.0993 14.1588 19.5874 15.0095L19.1693 15.7016V19.472C19.1693 23.0839 21.8367 26.9697 27.6907 26.9697C33.004 26.9697 36.1761 23.156 36.1761 19.472V15.7809L35.7147 15.0167C35.2028 14.166 34.9288 13.1927 34.9288 12.1978V9.35735C34.9288 8.91758 35.2821 8.56433 35.7219 8.56433C36.1616 8.56433 36.5149 8.91758 36.5149 9.35735V12.1978C36.5149 12.9043 36.7096 13.5964 37.07 14.202L37.0916 14.1948Z" fill="#EF4123"/>
<path d="M38.8361 38.8002C38.8145 38.7281 38.8073 38.656 38.8073 38.584V27.2148L33.5373 32.3046C33.2921 32.5425 32.9317 32.593 32.6289 32.4416C32.6145 32.4344 30.6463 31.4683 27.6905 31.4683C24.7347 31.4683 22.7737 32.4344 22.7521 32.4416C22.4493 32.593 22.0888 32.5353 21.8437 32.3046L16.5737 27.2148V38.584C16.5737 38.656 16.5665 38.7281 16.5449 38.8002C16.5449 38.8219 15.8672 41.2154 15.8672 42.6716C15.8672 48.1724 21.3895 52.9954 27.6905 52.9954C33.9914 52.9954 39.5138 48.1724 39.5138 42.6716C39.5138 41.2081 38.8433 38.8219 38.8361 38.8002Z" fill="#00B274"/>
<path d="M42.2866 24.7065C42.3514 25.0886 42.6903 25.3625 43.0652 25.3625C43.1084 25.3625 43.1589 25.3625 43.2021 25.3481L54.6794 23.3223C55.1119 23.243 55.4003 22.8321 55.321 22.4067C55.2417 21.9741 54.8308 21.6858 54.4054 21.7651L42.9282 23.7909C42.4956 23.8702 42.2073 24.2811 42.2866 24.7065Z" fill="#2C2B2A"/>
<path d="M13.0476 29.8686C12.9683 29.4361 12.5573 29.1477 12.132 29.227L0.654753 31.2528C0.222193 31.3321 -0.0661791 31.743 0.0131234 32.1684C0.0780074 32.5505 0.416836 32.8244 0.791721 32.8244C0.834977 32.8244 0.885444 32.8244 0.9287 32.81L12.4059 30.7842C12.8385 30.7049 13.1269 30.294 13.0476 29.8686Z" fill="#2C2B2A"/>
<path d="M44.4819 18.3766C44.6188 18.3766 44.7558 18.3405 44.8784 18.2685L51.7056 14.3249C52.0877 14.1087 52.2175 13.6184 51.994 13.2435C51.7777 12.8615 51.2875 12.7317 50.9126 12.9552L44.0853 16.8987C43.7033 17.115 43.5735 17.6052 43.797 17.9801C43.9412 18.2324 44.2079 18.3766 44.4819 18.3766Z" fill="#2C2B2A"/>
<path d="M13.1852 35.6498C12.9689 35.2677 12.4787 35.1379 12.1038 35.3614L3.64004 40.2494C3.25795 40.4656 3.12817 40.9559 3.35166 41.3308C3.49585 41.5831 3.76259 41.7273 4.03655 41.7273C4.17352 41.7273 4.3105 41.6912 4.43306 41.6191L12.8968 36.7312C13.2789 36.5149 13.4087 36.0247 13.1852 35.6498Z" fill="#2C2B2A"/>
<path d="M54.6794 31.2451L43.2021 29.2193C42.7696 29.1472 42.3587 29.4283 42.2866 29.8609C42.2073 30.2935 42.4956 30.7044 42.9282 30.7765L54.4054 32.8023C54.4487 32.8095 54.4992 32.8167 54.5424 32.8167C54.9173 32.8167 55.2561 32.5428 55.321 32.1607C55.4003 31.7281 55.1119 31.3172 54.6794 31.2451Z" fill="#2C2B2A"/>
<path d="M0.654753 23.3292L12.132 25.355C12.1753 25.3622 12.2257 25.3695 12.269 25.3695C12.6439 25.3695 12.9827 25.0955 13.0476 24.7134C13.1269 24.2808 12.8385 23.8699 12.4059 23.7978L0.9287 21.772C0.49614 21.6999 0.0852167 21.9811 0.0131234 22.4136C-0.0661791 22.8462 0.222193 23.2571 0.654753 23.3292Z" fill="#2C2B2A"/>
<path d="M51.7045 40.2426L43.2408 35.3547C42.8587 35.1384 42.3757 35.2682 42.1594 35.6431C41.9431 36.0252 42.0729 36.5082 42.4478 36.7245L50.9115 41.6124C51.0341 41.6845 51.171 41.7205 51.308 41.7205C51.582 41.7205 51.8487 41.5764 51.9929 41.324C52.2092 40.9419 52.0794 40.4589 51.7045 40.2426Z" fill="#2C2B2A"/>
<path d="M3.63917 14.325L10.7259 18.4127C10.8485 18.4848 10.9855 18.5209 11.1224 18.5209C11.3964 18.5209 11.6631 18.3767 11.8073 18.1244C12.0236 17.7423 11.8938 17.2592 11.519 17.043L4.43218 12.9553C4.05009 12.739 3.56707 12.8688 3.35079 13.2436C3.13451 13.6257 3.26428 14.1088 3.63917 14.325Z" fill="#2C2B2A"/>
<path d="M32.01 47.6752C31.6063 47.5022 31.1449 47.6896 30.9718 48.0934C30.8204 48.461 30.496 48.735 30.1139 48.8359C29.667 48.9513 29.1911 48.8359 28.7369 48.4899C28.5783 48.3673 28.4846 48.1654 28.4846 47.942V45.1447C29.0397 44.8564 29.4218 44.2796 29.4218 43.6092C29.4218 42.6575 28.6504 41.8789 27.6916 41.8789C26.7328 41.8789 25.9614 42.6503 25.9614 43.6092C25.9614 44.2796 26.3434 44.8564 26.8986 45.1447V47.942C26.8986 48.1654 26.8048 48.3673 26.6462 48.4899C26.192 48.8359 25.7162 48.9585 25.2693 48.8359C24.8872 48.735 24.57 48.4538 24.4114 48.0934C24.2383 47.6896 23.7769 47.5022 23.3732 47.6752C22.9695 47.8482 22.782 48.3096 22.9551 48.7134C23.3011 49.528 24.0148 50.148 24.8655 50.3715C25.1106 50.4364 25.363 50.4724 25.6153 50.4724C26.3002 50.4724 26.9923 50.2273 27.6123 49.7587C27.6411 49.7371 27.67 49.7082 27.6988 49.6866C27.7276 49.7082 27.7565 49.7371 27.7853 49.7587C28.4053 50.2273 29.0974 50.4724 29.7823 50.4724C30.0346 50.4724 30.2869 50.4364 30.5321 50.3715C31.3828 50.1408 32.0965 49.5208 32.4425 48.7134C32.6156 48.3096 32.4281 47.8482 32.0244 47.6752H32.01Z" fill="#2C2B2A"/>
<path d="M32.4278 36.9912C31.7213 36.9912 31.1445 37.568 31.1445 38.2745C31.1445 38.981 31.7213 39.5577 32.4278 39.5577C33.1343 39.5577 33.711 38.981 33.711 38.2745C33.711 37.568 33.1343 36.9912 32.4278 36.9912Z" fill="#2C2B2A"/>
<path d="M44.0994 43.8113H41.0354C41.0787 43.4364 41.1075 43.0543 41.1075 42.6722C41.1075 41.1655 40.538 38.9955 40.401 38.4764V26.8477C40.401 26.271 40.0622 25.7591 39.5287 25.5284C39.0024 25.305 38.3896 25.4131 37.9786 25.8168L32.824 30.7985C31.9733 30.4668 30.1349 29.8829 27.6982 29.8829C25.2614 29.8829 23.4302 30.4596 22.5723 30.7985L17.4177 25.8168C17.0067 25.4203 16.3939 25.305 15.8676 25.5284C15.3414 25.7519 14.9953 26.271 14.9953 26.8477V38.4764C14.8583 38.9882 14.2888 41.1655 14.2888 42.6722C14.2888 43.0543 14.3104 43.4364 14.3609 43.8113H11.2969C10.8572 43.8113 10.5039 44.1645 10.5039 44.6043C10.5039 45.0441 10.8572 45.3973 11.2969 45.3973H14.6853C14.8151 45.8371 14.9665 46.2769 15.1539 46.7022H12.3711C11.9314 46.7022 11.5781 47.0555 11.5781 47.4953C11.5781 47.935 11.9314 48.2883 12.3711 48.2883H15.9974C18.3332 51.9722 22.8174 54.582 27.7054 54.582C32.5933 54.582 37.0775 51.9722 39.4133 48.2883H43.0396C43.4794 48.2883 43.8326 47.935 43.8326 47.4953C43.8326 47.0555 43.4794 46.7022 43.0396 46.7022H40.2568C40.4442 46.2769 40.5956 45.8443 40.7254 45.3973H44.1138C44.5536 45.3973 44.9068 45.0441 44.9068 44.6043C44.9068 44.1645 44.5536 43.8113 44.1138 43.8113H44.0994ZM38.5049 46.7022H35.0589C34.6191 46.7022 34.2659 47.0555 34.2659 47.4953C34.2659 47.935 34.6191 48.2883 35.0589 48.2883H37.4884C35.3256 51.0783 31.6633 52.996 27.6982 52.996C23.733 52.996 20.0707 51.0783 17.9079 48.2883H20.3374C20.7772 48.2883 21.1305 47.935 21.1305 47.4953C21.1305 47.0555 20.7772 46.7022 20.3374 46.7022H16.8914C16.6751 46.2769 16.4877 45.8443 16.3363 45.3973H20.3374C20.7772 45.3973 21.1305 45.0441 21.1305 44.6043C21.1305 44.1645 20.7772 43.8113 20.3374 43.8113H15.9614C15.9109 43.4364 15.8821 43.0543 15.8821 42.6722C15.8821 41.2159 16.5525 38.8224 16.5597 38.8008C16.5814 38.7287 16.5886 38.6566 16.5886 38.5845V27.2154L21.8586 32.3052C22.1037 32.5359 22.4642 32.5936 22.767 32.4422C22.7886 32.435 24.7495 31.4689 27.7054 31.4689C30.6612 31.4689 32.6221 32.435 32.6438 32.4422C32.9465 32.5936 33.307 32.5431 33.5521 32.3052L38.8221 27.2154V38.5845C38.8221 38.6566 38.8294 38.7287 38.851 38.8008C38.851 38.8224 39.5287 41.2087 39.5287 42.6722C39.5287 43.0543 39.4998 43.4364 39.4494 43.8113H35.0733C34.6335 43.8113 34.2803 44.1645 34.2803 44.6043C34.2803 45.0441 34.6335 45.3973 35.0733 45.3973H39.0745C38.9231 45.8443 38.7356 46.2769 38.5193 46.7022H38.5049Z" fill="#2C2B2A"/>
<path d="M24.2384 38.2745C24.2384 37.568 23.6616 36.9912 22.9551 36.9912C22.2486 36.9912 21.6719 37.568 21.6719 38.2745C21.6719 38.981 22.2486 39.5577 22.9551 39.5577C23.6616 39.5577 24.2384 38.981 24.2384 38.2745Z" fill="#2C2B2A"/>
<path d="M31.8211 12.8034C32.4844 12.8034 33.0251 12.2627 33.0251 11.5995C33.0251 10.9362 32.4844 10.3955 31.8211 10.3955C31.1579 10.3955 30.6172 10.9362 30.6172 11.5995C30.6172 12.2627 31.1579 12.8034 31.8211 12.8034Z" fill="#2C2B2A"/>
<path d="M23.5594 12.8034C24.2227 12.8034 24.7634 12.2627 24.7634 11.5995C24.7634 10.9362 24.2227 10.3955 23.5594 10.3955C22.8962 10.3955 22.3555 10.9362 22.3555 11.5995C22.3555 12.2627 22.8962 12.8034 23.5594 12.8034Z" fill="#2C2B2A"/>
<path d="M24.763 17.8861C24.763 18.78 25.4912 19.5082 26.3851 19.5082H26.9186V21.2168C26.9186 21.26 26.9042 21.2961 26.9042 21.3393C26.9042 21.3826 26.9042 21.4258 26.9042 21.4619C26.8393 22.291 26.1472 22.9542 25.2965 22.9542C24.7198 22.9542 24.1863 22.6442 23.8979 22.1468C23.6744 21.7647 23.1914 21.6421 22.8165 21.8584C22.4344 22.0819 22.3119 22.5649 22.5281 22.9398C23.0977 23.9203 24.1575 24.5331 25.2965 24.5331C26.2554 24.5331 27.1133 24.1077 27.6972 23.4445C28.2812 24.1149 29.1391 24.5331 30.0979 24.5331C31.237 24.5331 32.2968 23.9203 32.8663 22.9398C33.0898 22.5577 32.96 22.0747 32.578 21.8584C32.1959 21.6349 31.7128 21.7647 31.4966 22.1468C31.2082 22.6442 30.6747 22.9542 30.0979 22.9542C29.2472 22.9542 28.5551 22.2982 28.4903 21.4619C28.4903 21.4403 28.4903 21.4258 28.4903 21.4042C28.4903 21.3898 28.4903 21.3826 28.4903 21.3682V19.5009H28.9949C29.8889 19.5009 30.617 18.7728 30.617 17.8789V17.8428C30.617 16.9488 29.8889 16.2207 28.9949 16.2207H26.3707C25.4768 16.2207 24.7486 16.9488 24.7486 17.8428V17.8789L24.763 17.8861Z" fill="#2C2B2A"/>
<path d="M14.2066 21.5919C14.358 21.6352 14.5094 21.6568 14.6608 21.6568C15.2304 21.6568 15.7711 21.3612 16.0739 20.8494L17.595 18.3333V19.4796C17.595 24.7424 21.8413 28.5633 27.7025 28.5633C34.0107 28.5633 37.7739 23.9494 37.7739 19.4796V18.4126L39.2519 20.8566C39.6412 21.5054 40.3981 21.801 41.1263 21.5991C41.8544 21.3973 42.3446 20.7484 42.3446 19.9915V13.1498C42.3446 9.59562 40.9533 6.31538 38.43 3.91467C35.7337 1.35536 32.0137 0 27.6665 0C23.3192 0 19.5992 1.35536 16.9029 3.91467C14.3797 6.31538 12.9883 9.59562 12.9883 13.1498V19.9915C12.9883 20.7484 13.4785 21.3901 14.2066 21.5991V21.5919ZM14.5743 13.1498C14.5743 10.0354 15.7927 7.15886 17.9988 5.06095C20.3923 2.7828 23.7374 1.57884 27.6737 1.57884C31.61 1.57884 34.9479 2.7828 37.3486 5.06095C39.5546 7.15886 40.773 10.0282 40.773 13.1498V19.9915C40.773 19.9915 40.773 20.0491 40.7153 20.0708C40.6577 20.0852 40.6433 20.0635 40.6288 20.0347L37.1035 14.2024C36.7358 13.5968 36.5484 12.9047 36.5484 12.1982V9.3577C36.5484 8.91793 36.1951 8.56468 35.7553 8.56468C35.3156 8.56468 34.9623 8.91793 34.9623 9.3577V12.1982C34.9623 13.1931 35.2363 14.1663 35.7481 15.017L36.2095 15.7812V19.4724C36.2095 23.1564 33.0374 26.9701 27.7241 26.9701C21.8702 26.9701 19.2027 23.0843 19.2027 19.4724V15.7019L19.6209 15.0098C20.1327 14.1591 20.4067 13.1859 20.4067 12.191V9.3505C20.4067 8.91073 20.0534 8.55747 19.6136 8.55747C19.1739 8.55747 18.8206 8.91073 18.8206 9.3505V12.191C18.8206 12.8975 18.626 13.5896 18.2655 14.1952L14.7401 20.0275C14.7401 20.0275 14.7113 20.078 14.6536 20.0636C14.596 20.0491 14.596 20.0131 14.596 19.9843V13.1426L14.5743 13.1498Z" fill="#2C2B2A"/>
</svg>
